<mxfile host="65bd71144e">
    <diagram id="kWIqMtEkC29zSuWAcs-H" name="Page-1">
        <mxGraphModel dx="798" dy="436" grid="1" gridSize="10" guides="1" tooltips="1" connect="1" arrows="1" fold="1" page="1" pageScale="1" pageWidth="850" pageHeight="1100" math="0" shadow="0">
            <root>
                <mxCell id="0"/>
                <mxCell id="1" parent="0"/>
                <mxCell id="2" value="ExpressRouteAdapter&lt;br&gt;" style="rounded=0;whiteSpace=wrap;html=1;" vertex="1" parent="1">
                    <mxGeometry x="110" y="100" width="150" height="60" as="geometry"/>
                </mxCell>
                <mxCell id="4" value="Express Route" style="rounded=0;whiteSpace=wrap;html=1;" vertex="1" parent="1">
                    <mxGeometry x="110" y="20" width="150" height="60" as="geometry"/>
                </mxCell>
                <mxCell id="5" value="UseCase" style="rounded=1;whiteSpace=wrap;html=1;" vertex="1" parent="1">
                    <mxGeometry x="230" y="190" width="120" height="60" as="geometry"/>
                </mxCell>
                <mxCell id="6" value="Repository" style="rounded=0;whiteSpace=wrap;html=1;" vertex="1" parent="1">
                    <mxGeometry x="230" y="260" width="120" height="60" as="geometry"/>
                </mxCell>
                <mxCell id="7" value="DB" style="shape=cylinder3;whiteSpace=wrap;html=1;boundedLbl=1;backgroundOutline=1;size=15;" vertex="1" parent="1">
                    <mxGeometry x="260" y="340" width="60" height="80" as="geometry"/>
                </mxCell>
                <mxCell id="9" value="RabbitMQAdapter" style="rounded=0;whiteSpace=wrap;html=1;" vertex="1" parent="1">
                    <mxGeometry x="320" y="100" width="150" height="60" as="geometry"/>
                </mxCell>
                <mxCell id="10" value="RabbitMQConsumer" style="rounded=0;whiteSpace=wrap;html=1;" vertex="1" parent="1">
                    <mxGeometry x="320" y="20" width="150" height="60" as="geometry"/>
                </mxCell>
            </root>
        </mxGraphModel>
    </diagram>
</mxfile>